<mxfile host="app.diagrams.net" agent="Mozilla/5.0 (Windows NT 10.0; Win64; x64) AppleWebKit/537.36 (KHTML, like Gecko) Chrome/126.0.0.0 Safari/537.36" version="24.7.6">
  <diagram name="Page-1" id="ktEYROPhRWZY5s_A5viP">
    <mxGraphModel dx="1313" dy="653" grid="1" gridSize="10" guides="1" tooltips="1" connect="1" arrows="1" fold="1" page="1" pageScale="1" pageWidth="850" pageHeight="1100" math="0" shadow="0">
      <root>
        <mxCell id="0" />
        <mxCell id="1" parent="0" />
        <mxCell id="2nsai8q7nPMxsBDJ7FhW-1" value="" style="rounded=0;whiteSpace=wrap;html=1;" vertex="1" parent="1">
          <mxGeometry x="70" y="200" width="250" height="290" as="geometry" />
        </mxCell>
        <mxCell id="2nsai8q7nPMxsBDJ7FhW-16" style="edgeStyle=orthogonalEdgeStyle;rounded=0;orthogonalLoop=1;jettySize=auto;html=1;entryX=0;entryY=0.5;entryDx=0;entryDy=0;" edge="1" parent="1" source="2nsai8q7nPMxsBDJ7FhW-2" target="2nsai8q7nPMxsBDJ7FhW-15">
          <mxGeometry relative="1" as="geometry" />
        </mxCell>
        <mxCell id="2nsai8q7nPMxsBDJ7FhW-2" value="Preapare Request and sender&amp;nbsp;" style="rounded=1;whiteSpace=wrap;html=1;" vertex="1" parent="1">
          <mxGeometry x="135" y="220" width="115" height="60" as="geometry" />
        </mxCell>
        <mxCell id="2nsai8q7nPMxsBDJ7FhW-3" value="capture Image" style="ellipse;whiteSpace=wrap;html=1;aspect=fixed;" vertex="1" parent="1">
          <mxGeometry x="120" y="60" width="80" height="80" as="geometry" />
        </mxCell>
        <mxCell id="2nsai8q7nPMxsBDJ7FhW-4" value="captured Image event" style="edgeStyle=orthogonalEdgeStyle;rounded=0;orthogonalLoop=1;jettySize=auto;html=1;entryX=0.5;entryY=0;entryDx=0;entryDy=0;" edge="1" parent="1" source="2nsai8q7nPMxsBDJ7FhW-3" target="2nsai8q7nPMxsBDJ7FhW-2">
          <mxGeometry relative="1" as="geometry" />
        </mxCell>
        <mxCell id="2nsai8q7nPMxsBDJ7FhW-9" style="edgeStyle=orthogonalEdgeStyle;rounded=0;orthogonalLoop=1;jettySize=auto;html=1;entryX=0.5;entryY=0;entryDx=0;entryDy=0;" edge="1" parent="1" source="2nsai8q7nPMxsBDJ7FhW-5" target="2nsai8q7nPMxsBDJ7FhW-7">
          <mxGeometry relative="1" as="geometry" />
        </mxCell>
        <mxCell id="2nsai8q7nPMxsBDJ7FhW-10" style="edgeStyle=orthogonalEdgeStyle;rounded=0;orthogonalLoop=1;jettySize=auto;html=1;entryX=0.5;entryY=0;entryDx=0;entryDy=0;" edge="1" parent="1" source="2nsai8q7nPMxsBDJ7FhW-5" target="2nsai8q7nPMxsBDJ7FhW-8">
          <mxGeometry relative="1" as="geometry" />
        </mxCell>
        <mxCell id="2nsai8q7nPMxsBDJ7FhW-5" value="Callback Handler" style="rounded=0;whiteSpace=wrap;html=1;" vertex="1" parent="1">
          <mxGeometry x="135" y="320" width="120" height="60" as="geometry" />
        </mxCell>
        <mxCell id="2nsai8q7nPMxsBDJ7FhW-7" value="Success Callback" style="rounded=0;whiteSpace=wrap;html=1;" vertex="1" parent="1">
          <mxGeometry x="70" y="420" width="120" height="60" as="geometry" />
        </mxCell>
        <mxCell id="2nsai8q7nPMxsBDJ7FhW-8" value="Failure Callback" style="rounded=1;whiteSpace=wrap;html=1;" vertex="1" parent="1">
          <mxGeometry x="200" y="420" width="120" height="60" as="geometry" />
        </mxCell>
        <mxCell id="2nsai8q7nPMxsBDJ7FhW-12" value="" style="whiteSpace=wrap;html=1;aspect=fixed;" vertex="1" parent="1">
          <mxGeometry x="490" y="190" width="330" height="330" as="geometry" />
        </mxCell>
        <mxCell id="2nsai8q7nPMxsBDJ7FhW-20" style="edgeStyle=orthogonalEdgeStyle;rounded=0;orthogonalLoop=1;jettySize=auto;html=1;exitX=1;exitY=0.5;exitDx=0;exitDy=0;entryX=0;entryY=0.5;entryDx=0;entryDy=0;" edge="1" parent="1" source="2nsai8q7nPMxsBDJ7FhW-14" target="2nsai8q7nPMxsBDJ7FhW-18">
          <mxGeometry relative="1" as="geometry" />
        </mxCell>
        <mxCell id="2nsai8q7nPMxsBDJ7FhW-14" value="Request Receiver/ Receiver Controller&amp;nbsp;" style="rounded=1;whiteSpace=wrap;html=1;" vertex="1" parent="1">
          <mxGeometry x="520" y="240" width="120" height="60" as="geometry" />
        </mxCell>
        <mxCell id="2nsai8q7nPMxsBDJ7FhW-17" style="edgeStyle=orthogonalEdgeStyle;rounded=0;orthogonalLoop=1;jettySize=auto;html=1;entryX=0;entryY=0.5;entryDx=0;entryDy=0;" edge="1" parent="1" source="2nsai8q7nPMxsBDJ7FhW-15" target="2nsai8q7nPMxsBDJ7FhW-14">
          <mxGeometry relative="1" as="geometry" />
        </mxCell>
        <mxCell id="2nsai8q7nPMxsBDJ7FhW-15" value="Load Balancer&amp;nbsp;" style="rounded=1;whiteSpace=wrap;html=1;" vertex="1" parent="1">
          <mxGeometry x="350" y="230" width="100" height="60" as="geometry" />
        </mxCell>
        <mxCell id="2nsai8q7nPMxsBDJ7FhW-18" value="Process Service /Kafka Producer&amp;nbsp;" style="rounded=1;whiteSpace=wrap;html=1;" vertex="1" parent="1">
          <mxGeometry x="680" y="240" width="120" height="60" as="geometry" />
        </mxCell>
        <mxCell id="2nsai8q7nPMxsBDJ7FhW-25" style="edgeStyle=orthogonalEdgeStyle;rounded=0;orthogonalLoop=1;jettySize=auto;html=1;entryX=1;entryY=0.5;entryDx=0;entryDy=0;" edge="1" parent="1" source="2nsai8q7nPMxsBDJ7FhW-21" target="2nsai8q7nPMxsBDJ7FhW-23">
          <mxGeometry relative="1" as="geometry">
            <mxPoint x="840" y="450" as="targetPoint" />
            <Array as="points">
              <mxPoint x="840" y="60" />
              <mxPoint x="840" y="440" />
            </Array>
          </mxGeometry>
        </mxCell>
        <mxCell id="2nsai8q7nPMxsBDJ7FhW-21" value="Kafka Priority Queue" style="rounded=1;whiteSpace=wrap;html=1;" vertex="1" parent="1">
          <mxGeometry x="570" y="30" width="250" height="60" as="geometry" />
        </mxCell>
        <mxCell id="2nsai8q7nPMxsBDJ7FhW-22" value="Send data to queue" style="edgeStyle=orthogonalEdgeStyle;rounded=0;orthogonalLoop=1;jettySize=auto;html=1;entryX=0.531;entryY=1.08;entryDx=0;entryDy=0;entryPerimeter=0;" edge="1" parent="1" source="2nsai8q7nPMxsBDJ7FhW-18" target="2nsai8q7nPMxsBDJ7FhW-21">
          <mxGeometry relative="1" as="geometry" />
        </mxCell>
        <mxCell id="2nsai8q7nPMxsBDJ7FhW-27" style="edgeStyle=orthogonalEdgeStyle;rounded=0;orthogonalLoop=1;jettySize=auto;html=1;entryX=1;entryY=0.5;entryDx=0;entryDy=0;" edge="1" parent="1" source="2nsai8q7nPMxsBDJ7FhW-23" target="2nsai8q7nPMxsBDJ7FhW-26">
          <mxGeometry relative="1" as="geometry" />
        </mxCell>
        <mxCell id="2nsai8q7nPMxsBDJ7FhW-23" value="Kafka Consumer" style="rounded=1;whiteSpace=wrap;html=1;" vertex="1" parent="1">
          <mxGeometry x="690" y="410" width="110" height="60" as="geometry" />
        </mxCell>
        <mxCell id="2nsai8q7nPMxsBDJ7FhW-29" value="Send response to the client Callback Handler" style="edgeStyle=orthogonalEdgeStyle;rounded=0;orthogonalLoop=1;jettySize=auto;html=1;entryX=1;entryY=0.5;entryDx=0;entryDy=0;" edge="1" parent="1" source="2nsai8q7nPMxsBDJ7FhW-26" target="2nsai8q7nPMxsBDJ7FhW-5">
          <mxGeometry relative="1" as="geometry" />
        </mxCell>
        <mxCell id="2nsai8q7nPMxsBDJ7FhW-26" value="Callback Service" style="rounded=1;whiteSpace=wrap;html=1;" vertex="1" parent="1">
          <mxGeometry x="520" y="410" width="120" height="60" as="geometry" />
        </mxCell>
      </root>
    </mxGraphModel>
  </diagram>
</mxfile>
